<svg width="1582" height="561" viewBox="0 0 1582 561" fill="none" xmlns="http://www.w3.org/2000/svg">
<path d="M157.952 2.76428H173.905V19.3435H157.952V2.76428Z" fill="#1E1E1E"/>
<path d="M79.875 2.76428H95.8282V19.3435H79.875V2.76428Z" fill="#1E1E1E"/>
<path d="M0 2.76428H15.9532V19.3435H0V2.76428Z" fill="#1E1E1E"/>
<path d="M248.353 0L262.169 8.2896L254.193 22.6476L240.377 14.358L248.353 0Z" fill="#1E1E1E"/>
<path d="M336.618 0L344.594 14.358L330.778 22.6476L322.802 8.2896L336.618 0Z" fill="#1E1E1E"/>
<path d="M157.952 79.6685H173.905V96.2477H157.952V79.6685Z" fill="#1E1E1E"/>
<path d="M79.875 79.6685H95.8282V96.2477H79.875V79.6685Z" fill="#1E1E1E"/>
<path d="M0 79.6685H15.9532V96.2477H0V79.6685Z" fill="#1E1E1E"/>
<path d="M248.353 76.9062L262.169 85.1958L254.193 99.5538L240.377 91.2643L248.353 76.9062Z" fill="#1E1E1E"/>
<path d="M336.618 76.9062L344.594 91.2643L330.778 99.5538L322.802 85.1958L336.618 76.9062Z" fill="#1E1E1E"/>
<path d="M157.952 156.576H173.905V173.155H157.952V156.576Z" fill="#1E1E1E"/>
<path d="M79.875 156.576H95.8282V173.155H79.875V156.576Z" fill="#1E1E1E"/>
<path d="M0 156.576H15.9532V173.155H0V156.576Z" fill="#1E1E1E"/>
<path d="M248.094 153.813L261.91 162.103L253.933 176.461L240.118 168.171L248.094 153.813Z" fill="#1E1E1E"/>
<path d="M336.618 153.813L344.594 168.171L330.778 176.461L322.802 162.103L336.618 153.813Z" fill="#1E1E1E"/>
<path d="M157.952 233.485H173.905V250.064H157.952V233.485Z" fill="#1E1E1E"/>
<path d="M79.875 233.485H95.8282V250.064H79.875V233.485Z" fill="#1E1E1E"/>
<path d="M0 233.485H15.9532V250.064H0V233.485Z" fill="#1E1E1E"/>
<path d="M248.353 230.72L262.169 239.01L254.193 253.368L240.377 245.078L248.353 230.72Z" fill="#1E1E1E"/>
<path d="M336.618 230.72L344.594 245.078L330.778 253.368L322.802 239.01L336.618 230.72Z" fill="#1E1E1E"/>
<path d="M157.952 310.392H173.905V326.971H157.952V310.392Z" fill="#1E1E1E"/>
<path d="M79.875 310.392H95.8282V326.971H79.875V310.392Z" fill="#1E1E1E"/>
<path d="M0 310.392H15.9532V326.971H0V310.392Z" fill="#1E1E1E"/>
<path d="M248.353 307.63L262.169 315.919L254.193 330.277L240.377 321.988L248.353 307.63Z" fill="#1E1E1E"/>
<path d="M336.618 307.63L344.594 321.988L330.778 330.277L322.802 315.919L336.618 307.63Z" fill="#1E1E1E"/>
<path d="M157.952 387.299H173.905V403.878H157.952V387.299Z" fill="#1E1E1E"/>
<path d="M79.875 387.299H95.8282V403.878H79.875V387.299Z" fill="#1E1E1E"/>
<path d="M0 387.299H15.9532V403.878H0V387.299Z" fill="#1E1E1E"/>
<path d="M248.094 384.536L261.91 392.826L253.933 407.184L240.118 398.894L248.094 384.536Z" fill="#1E1E1E"/>
<path d="M336.618 384.536L344.594 398.894L330.778 407.184L322.802 392.826L336.618 384.536Z" fill="#1E1E1E"/>
<path d="M157.952 464.21H173.905V480.789H157.952V464.21Z" fill="#1E1E1E"/>
<path d="M79.875 464.21H95.8282V480.789H79.875V464.21Z" fill="#1E1E1E"/>
<path d="M0 464.21H15.9532V480.789H0V464.21Z" fill="#1E1E1E"/>
<path d="M248.353 461.446L262.169 469.735L254.193 484.093L240.377 475.804L248.353 461.446Z" fill="#1E1E1E"/>
<path d="M336.618 461.446L344.594 475.804L330.778 484.093L322.802 469.735L336.618 461.446Z" fill="#1E1E1E"/>
<path d="M157.952 541.115H173.905V557.694H157.952V541.115Z" fill="#1E1E1E"/>
<path d="M79.875 541.115H95.8282V557.694H79.875V541.115Z" fill="#1E1E1E"/>
<path d="M0 541.115H15.9532V557.694H0V541.115Z" fill="#1E1E1E"/>
<path d="M248.353 538.352L262.169 546.642L254.193 561L240.377 552.71L248.353 538.352Z" fill="#1E1E1E"/>
<path d="M336.618 538.352L344.594 552.71L330.778 561L322.802 546.642L336.618 538.352Z" fill="#1E1E1E"/>
<path d="M570.421 2.76428H586.374V19.3435H570.421V2.76428Z" fill="#1E1E1E"/>
<path d="M492.344 2.76428H508.297V19.3435H492.344V2.76428Z" fill="#1E1E1E"/>
<path d="M412.469 2.76428H428.422V19.3435H412.469V2.76428Z" fill="#1E1E1E"/>
<path d="M660.822 0L674.638 8.2896L666.661 22.6476L652.846 14.358L660.822 0Z" fill="#1E1E1E"/>
<path d="M749.086 0L757.063 14.358L743.247 22.6476L735.27 8.2896L749.086 0Z" fill="#1E1E1E"/>
<path d="M570.421 79.6689H586.374V96.2481H570.421V79.6689Z" fill="#1E1E1E"/>
<path d="M492.344 79.6689H508.297V96.2481H492.344V79.6689Z" fill="#1E1E1E"/>
<path d="M412.469 79.6689H428.422V96.2481H412.469V79.6689Z" fill="#1E1E1E"/>
<path d="M660.822 76.9067L674.638 85.1963L666.661 99.5543L652.846 91.2647L660.822 76.9067Z" fill="#1E1E1E"/>
<path d="M749.086 76.9067L757.063 91.2647L743.247 99.5543L735.27 85.1963L749.086 76.9067Z" fill="#1E1E1E"/>
<path d="M570.421 156.577H586.374V173.156H570.421V156.577Z" fill="#1E1E1E"/>
<path d="M492.344 156.577H508.297V173.156H492.344V156.577Z" fill="#1E1E1E"/>
<path d="M412.469 156.577H428.422V173.156H412.469V156.577Z" fill="#1E1E1E"/>
<path d="M660.563 153.814L674.379 162.103L666.402 176.461L652.586 168.172L660.563 153.814Z" fill="#1E1E1E"/>
<path d="M749.086 153.814L757.063 168.172L743.247 176.461L735.27 162.103L749.086 153.814Z" fill="#1E1E1E"/>
<path d="M570.421 233.485H586.374V250.064H570.421V233.485Z" fill="#1E1E1E"/>
<path d="M492.344 233.485H508.297V250.064H492.344V233.485Z" fill="#1E1E1E"/>
<path d="M412.469 233.485H428.422V250.064H412.469V233.485Z" fill="#1E1E1E"/>
<path d="M660.822 230.72L674.638 239.01L666.661 253.368L652.846 245.078L660.822 230.72Z" fill="#1E1E1E"/>
<path d="M749.086 230.72L757.063 245.078L743.247 253.368L735.27 239.01L749.086 230.72Z" fill="#1E1E1E"/>
<path d="M570.421 310.392H586.374V326.971H570.421V310.392Z" fill="#1E1E1E"/>
<path d="M492.344 310.392H508.297V326.971H492.344V310.392Z" fill="#1E1E1E"/>
<path d="M412.469 310.392H428.422V326.971H412.469V310.392Z" fill="#1E1E1E"/>
<path d="M660.822 307.63L674.638 315.919L666.661 330.277L652.846 321.988L660.822 307.63Z" fill="#1E1E1E"/>
<path d="M749.086 307.63L757.063 321.988L743.247 330.277L735.27 315.919L749.086 307.63Z" fill="#1E1E1E"/>
<path d="M570.421 387.299H586.374V403.878H570.421V387.299Z" fill="#1E1E1E"/>
<path d="M492.344 387.299H508.297V403.878H492.344V387.299Z" fill="#1E1E1E"/>
<path d="M412.469 387.299H428.422V403.878H412.469V387.299Z" fill="#1E1E1E"/>
<path d="M660.563 384.536L674.379 392.826L666.402 407.184L652.586 398.894L660.563 384.536Z" fill="#1E1E1E"/>
<path d="M749.086 384.536L757.063 398.894L743.247 407.184L735.27 392.826L749.086 384.536Z" fill="#1E1E1E"/>
<path d="M570.421 464.21H586.374V480.789H570.421V464.21Z" fill="#1E1E1E"/>
<path d="M492.344 464.21H508.297V480.789H492.344V464.21Z" fill="#1E1E1E"/>
<path d="M412.469 464.21H428.422V480.789H412.469V464.21Z" fill="#1E1E1E"/>
<path d="M660.822 461.446L674.638 469.735L666.661 484.093L652.846 475.804L660.822 461.446Z" fill="#1E1E1E"/>
<path d="M749.086 461.446L757.063 475.804L743.247 484.093L735.27 469.735L749.086 461.446Z" fill="#1E1E1E"/>
<path d="M570.421 541.115H586.374V557.694H570.421V541.115Z" fill="#1E1E1E"/>
<path d="M492.344 541.115H508.297V557.694H492.344V541.115Z" fill="#1E1E1E"/>
<path d="M412.469 541.115H428.422V557.694H412.469V541.115Z" fill="#1E1E1E"/>
<path d="M660.822 538.352L674.638 546.642L666.661 561L652.846 552.71L660.822 538.352Z" fill="#1E1E1E"/>
<path d="M749.086 538.352L757.063 552.71L743.247 561L735.27 546.642L749.086 538.352Z" fill="#1E1E1E"/>
<path d="M982.889 2.76428H998.842V19.3435H982.889V2.76428Z" fill="#1E1E1E"/>
<path d="M904.812 2.76428H920.765V19.3435H904.812V2.76428Z" fill="#1E1E1E"/>
<path d="M824.937 2.76428H840.89V19.3435H824.937V2.76428Z" fill="#1E1E1E"/>
<path d="M1073.29 0L1087.11 8.2896L1079.13 22.6476L1065.31 14.358L1073.29 0Z" fill="#1E1E1E"/>
<path d="M1161.55 0L1169.53 14.358L1155.72 22.6476L1147.74 8.2896L1161.55 0Z" fill="#1E1E1E"/>
<path d="M982.889 79.6685H998.842V96.2477H982.889V79.6685Z" fill="#1E1E1E"/>
<path d="M904.812 79.6685H920.765V96.2477H904.812V79.6685Z" fill="#1E1E1E"/>
<path d="M824.937 79.6685H840.89V96.2477H824.937V79.6685Z" fill="#1E1E1E"/>
<path d="M1073.29 76.9062L1087.11 85.1958L1079.13 99.5538L1065.31 91.2643L1073.29 76.9062Z" fill="#1E1E1E"/>
<path d="M1161.55 76.9062L1169.53 91.2643L1155.72 99.5538L1147.74 85.1958L1161.55 76.9062Z" fill="#1E1E1E"/>
<path d="M982.889 156.576H998.842V173.155H982.889V156.576Z" fill="#1E1E1E"/>
<path d="M904.812 156.576H920.765V173.155H904.812V156.576Z" fill="#1E1E1E"/>
<path d="M824.937 156.576H840.89V173.155H824.937V156.576Z" fill="#1E1E1E"/>
<path d="M1073.03 153.813L1086.85 162.103L1078.87 176.461L1065.05 168.171L1073.03 153.813Z" fill="#1E1E1E"/>
<path d="M1161.55 153.813L1169.53 168.171L1155.72 176.461L1147.74 162.103L1161.55 153.813Z" fill="#1E1E1E"/>
<path d="M982.889 233.485H998.842V250.064H982.889V233.485Z" fill="#1E1E1E"/>
<path d="M904.812 233.485H920.765V250.064H904.812V233.485Z" fill="#1E1E1E"/>
<path d="M824.937 233.485H840.89V250.064H824.937V233.485Z" fill="#1E1E1E"/>
<path d="M1073.29 230.72L1087.11 239.01L1079.13 253.368L1065.31 245.078L1073.29 230.72Z" fill="#1E1E1E"/>
<path d="M1161.55 230.72L1169.53 245.078L1155.72 253.368L1147.74 239.01L1161.55 230.72Z" fill="#1E1E1E"/>
<path d="M982.889 310.392H998.842V326.971H982.889V310.392Z" fill="#1E1E1E"/>
<path d="M904.812 310.392H920.765V326.971H904.812V310.392Z" fill="#1E1E1E"/>
<path d="M824.937 310.392H840.89V326.971H824.937V310.392Z" fill="#1E1E1E"/>
<path d="M1073.29 307.63L1087.11 315.919L1079.13 330.277L1065.31 321.988L1073.29 307.63Z" fill="#1E1E1E"/>
<path d="M1161.55 307.63L1169.53 321.988L1155.72 330.277L1147.74 315.919L1161.55 307.63Z" fill="#1E1E1E"/>
<path d="M982.889 387.299H998.842V403.878H982.889V387.299Z" fill="#1E1E1E"/>
<path d="M904.812 387.299H920.765V403.878H904.812V387.299Z" fill="#1E1E1E"/>
<path d="M824.937 387.299H840.89V403.878H824.937V387.299Z" fill="#1E1E1E"/>
<path d="M1073.03 384.536L1086.85 392.826L1078.87 407.184L1065.05 398.894L1073.03 384.536Z" fill="#1E1E1E"/>
<path d="M1161.55 384.536L1169.53 398.894L1155.72 407.184L1147.74 392.826L1161.55 384.536Z" fill="#1E1E1E"/>
<path d="M982.889 464.21H998.842V480.789H982.889V464.21Z" fill="#1E1E1E"/>
<path d="M904.812 464.21H920.765V480.789H904.812V464.21Z" fill="#1E1E1E"/>
<path d="M824.937 464.21H840.89V480.789H824.937V464.21Z" fill="#1E1E1E"/>
<path d="M1073.29 461.446L1087.11 469.735L1079.13 484.093L1065.31 475.804L1073.29 461.446Z" fill="#1E1E1E"/>
<path d="M1161.55 461.446L1169.53 475.804L1155.72 484.093L1147.74 469.735L1161.55 461.446Z" fill="#1E1E1E"/>
<path d="M982.889 541.115H998.842V557.694H982.889V541.115Z" fill="#1E1E1E"/>
<path d="M904.812 541.115H920.765V557.694H904.812V541.115Z" fill="#1E1E1E"/>
<path d="M824.937 541.115H840.89V557.694H824.937V541.115Z" fill="#1E1E1E"/>
<path d="M1073.29 538.352L1087.11 546.642L1079.13 561L1065.31 552.71L1073.29 538.352Z" fill="#1E1E1E"/>
<path d="M1161.55 538.352L1169.53 552.71L1155.72 561L1147.74 546.642L1161.55 538.352Z" fill="#1E1E1E"/>
<path d="M1395.36 2.76428H1411.31V19.3435H1395.36V2.76428Z" fill="#1E1E1E"/>
<path d="M1317.28 2.76428H1333.23V19.3435H1317.28V2.76428Z" fill="#1E1E1E"/>
<path d="M1237.41 2.76428H1253.36V19.3435H1237.41V2.76428Z" fill="#1E1E1E"/>
<path d="M1485.76 0L1499.58 8.2896L1491.6 22.6476L1477.78 14.358L1485.76 0Z" fill="#1E1E1E"/>
<path d="M1574.02 0L1582 14.358L1568.18 22.6476L1560.21 8.2896L1574.02 0Z" fill="#1E1E1E"/>
<path d="M1395.36 79.6685H1411.31V96.2477H1395.36V79.6685Z" fill="#1E1E1E"/>
<path d="M1317.28 79.6685H1333.23V96.2477H1317.28V79.6685Z" fill="#1E1E1E"/>
<path d="M1237.41 79.6685H1253.36V96.2477H1237.41V79.6685Z" fill="#1E1E1E"/>
<path d="M1485.76 76.9062L1499.58 85.1958L1491.6 99.5538L1477.78 91.2643L1485.76 76.9062Z" fill="#1E1E1E"/>
<path d="M1574.02 76.9062L1582 91.2643L1568.18 99.5538L1560.21 85.1958L1574.02 76.9062Z" fill="#1E1E1E"/>
<path d="M1395.36 156.576H1411.31V173.155H1395.36V156.576Z" fill="#1E1E1E"/>
<path d="M1317.28 156.576H1333.23V173.155H1317.28V156.576Z" fill="#1E1E1E"/>
<path d="M1237.41 156.576H1253.36V173.155H1237.41V156.576Z" fill="#1E1E1E"/>
<path d="M1485.5 153.813L1499.32 162.103L1491.34 176.461L1477.52 168.171L1485.5 153.813Z" fill="#1E1E1E"/>
<path d="M1574.02 153.813L1582 168.171L1568.18 176.461L1560.21 162.103L1574.02 153.813Z" fill="#1E1E1E"/>
<path d="M1395.36 233.485H1411.31V250.064H1395.36V233.485Z" fill="#1E1E1E"/>
<path d="M1317.28 233.485H1333.23V250.064H1317.28V233.485Z" fill="#1E1E1E"/>
<path d="M1237.41 233.485H1253.36V250.064H1237.41V233.485Z" fill="#1E1E1E"/>
<path d="M1485.76 230.72L1499.58 239.01L1491.6 253.368L1477.78 245.078L1485.76 230.72Z" fill="#1E1E1E"/>
<path d="M1574.02 230.72L1582 245.078L1568.18 253.368L1560.21 239.01L1574.02 230.72Z" fill="#1E1E1E"/>
<path d="M1395.36 310.392H1411.31V326.971H1395.36V310.392Z" fill="#1E1E1E"/>
<path d="M1317.28 310.392H1333.23V326.971H1317.28V310.392Z" fill="#1E1E1E"/>
<path d="M1237.41 310.392H1253.36V326.971H1237.41V310.392Z" fill="#1E1E1E"/>
<path d="M1485.76 307.63L1499.58 315.919L1491.6 330.277L1477.78 321.988L1485.76 307.63Z" fill="#1E1E1E"/>
<path d="M1574.02 307.63L1582 321.988L1568.18 330.277L1560.21 315.919L1574.02 307.63Z" fill="#1E1E1E"/>
<path d="M1395.36 387.299H1411.31V403.878H1395.36V387.299Z" fill="#1E1E1E"/>
<path d="M1317.28 387.299H1333.23V403.878H1317.28V387.299Z" fill="#1E1E1E"/>
<path d="M1237.41 387.299H1253.36V403.878H1237.41V387.299Z" fill="#1E1E1E"/>
<path d="M1485.5 384.536L1499.32 392.826L1491.34 407.184L1477.52 398.894L1485.5 384.536Z" fill="#1E1E1E"/>
<path d="M1574.02 384.536L1582 398.894L1568.18 407.184L1560.21 392.826L1574.02 384.536Z" fill="#1E1E1E"/>
<path d="M1395.36 464.21H1411.31V480.789H1395.36V464.21Z" fill="#1E1E1E"/>
<path d="M1317.28 464.21H1333.23V480.789H1317.28V464.21Z" fill="#1E1E1E"/>
<path d="M1237.41 464.21H1253.36V480.789H1237.41V464.21Z" fill="#1E1E1E"/>
<path d="M1485.76 461.446L1499.58 469.735L1491.6 484.093L1477.78 475.804L1485.76 461.446Z" fill="#1E1E1E"/>
<path d="M1574.02 461.446L1582 475.804L1568.18 484.093L1560.21 469.735L1574.02 461.446Z" fill="#1E1E1E"/>
<path d="M1395.36 541.115H1411.31V557.694H1395.36V541.115Z" fill="#1E1E1E"/>
<path d="M1317.28 541.115H1333.23V557.694H1317.28V541.115Z" fill="#1E1E1E"/>
<path d="M1237.41 541.115H1253.36V557.694H1237.41V541.115Z" fill="#1E1E1E"/>
<path d="M1485.76 538.352L1499.58 546.642L1491.6 561L1477.78 552.71L1485.76 538.352Z" fill="#1E1E1E"/>
<path d="M1574.02 538.352L1582 552.71L1568.18 561L1560.21 546.642L1574.02 538.352Z" fill="#1E1E1E"/>
</svg>
